<svg viewBox="0 0 50 50" xmlns="http://www.w3.org/2000/svg" xmlns:xlink="http://www.w3.org/1999/xlink" width="50.000000" height="50.000000" fill="none">
    <rect id="лого ангар рог с фоном 2" width="50.000000" height="50.000000" x="0.000000" y="0.000000" />
    <circle id="Эллипс 21" cx="25" cy="25" r="25" fill="rgb(255,249,240)" />
    <g id="Группа 157">
        <path id="Вектор 355" d="M8.57001 31.4401C8.65001 31.5101 8.69001 31.4501 8.71001 31.3701C8.69001 31.4501 8.65001 31.5001 8.57001 31.4401Z" fill-rule="nonzero" />
        <path id="Вектор 356" d="M20.13 20.27C17.86 20.17 15.78 21.37 14.26 23.06C15.78 21.38 17.86 20.17 20.13 20.27Z" fill-rule="nonzero" />
        <path id="Вектор 357" d="M17.74 21.8701C17.74 21.8701 17.7 21.9001 17.68 21.9201C17.7 21.9001 17.72 21.8901 17.74 21.8701Z" fill-rule="nonzero" />
        <path id="Вектор 358" d="M12.44 32.34L12.84 35.48L12.44 32.34C12.41 30.07 13.14 27.75 14.34 25.74C13.13 27.75 12.41 30.07 12.44 32.34Z" fill-rule="nonzero" />
        <path id="Вектор 359" d="M17.48 22.0699C17.48 22.0699 17.51 22.0499 17.52 22.0399C17.57 21.9999 17.62 21.9599 17.67 21.9199C17.62 21.9599 17.57 21.9999 17.52 22.0399C17.51 22.0499 17.49 22.0599 17.48 22.0699Z" fill-rule="nonzero" />
        <path id="Вектор 360" d="M12.17 21.3101C11.23 22.0501 10.41 22.9701 9.8 23.9601C8.88 25.4201 8.32 27.0701 8.25 28.7601C8.33 27.0701 8.88 25.4301 9.8 23.9601C10.42 22.9801 11.23 22.0601 12.17 21.3101Z" fill-rule="nonzero" />
        <path id="Вектор 361" d="M17.83 19.6499C17.83 19.6999 17.84 19.7299 17.84 19.7599C17.84 19.7399 17.84 19.6999 17.83 19.6499Z" fill-rule="nonzero" />
        <path id="Вектор 362" d="M17.21 20.1101C17.38 20.0301 17.55 19.9401 17.72 19.8501C17.72 19.8501 17.72 19.8501 17.73 19.8501C17.73 19.8501 17.73 19.8501 17.72 19.8501C17.55 19.9401 17.38 20.0301 17.21 20.1101Z" fill-rule="nonzero" />
        <path id="Вектор 363" d="M30.15 24.79C30.19 25.14 30.27 25.45 30.41 25.65L32.01 26.16L30.41 25.65C30.27 25.45 30.18 25.14 30.15 24.79L30.15 24.79Z" fill-rule="nonzero" />
        <path id="Вектор 364" d="M32.76 20.12C32.86 19.93 32.91 19.68 33.01 19.45C32.92 19.68 32.87 19.93 32.76 20.12Z" fill-rule="nonzero" />
        <path id="Вектор 365" d="M16.41 18.8599C15.86 18.1699 15.12 17.9199 14.33 17.9199C15.11 17.9199 15.85 18.1699 16.41 18.8599Z" fill-rule="nonzero" />
        <path id="Вектор 366" d="M34.98 25.1101C34.17 25.2801 33.43 25.7101 32.79 26.2201C33.43 25.7101 34.17 25.2701 34.98 25.1101Z" fill-rule="nonzero" />
        <path id="Вектор 367" d="M36.53 24.4999C36.34 23.2199 34.53 24.2199 33.57 24.2499C34.53 24.2199 36.35 23.2199 36.53 24.4999Z" fill-rule="nonzero" />
        <path id="Вектор 368" d="M32.01 22.97C32.01 22.97 32.02 22.97 32.03 22.98C32.03 22.98 32.02 22.98 32.01 22.97Z" fill-rule="nonzero" />
        <path id="Вектор 369" />
        <path id="Вектор 370" />
        <path id="Вектор 371" d="M31.98 22.7799C31.9 22.5699 31.83 22.3699 31.78 22.1599C31.83 22.3699 31.91 22.5699 31.98 22.7799Z" fill-rule="nonzero" />
        <path id="Вектор 372" d="M8.09998 15.77C7.02998 16.75 6.23998 18.06 5.91998 19.43C6.23998 18.07 7.02998 16.75 8.09998 15.77Z" fill-rule="nonzero" />
        <path id="Вектор 373" />
        <path id="Вектор 374" d="M20.66 8.94995C17.58 5.82995 12.16 7.70995 9.60999 10.6299C12.17 7.70995 17.58 5.82995 20.66 8.94995Z" fill-rule="nonzero" />
        <path id="Вектор 375" d="M14.18 10.85L13.62 11.94C12.9 11.75 12.16 11.72 11.43 11.8C12.16 11.72 12.91 11.75 13.62 11.94L14.18 10.85C13.39 9.91001 11.85 10.24 10.63 10.83C11.85 10.24 13.4 9.91001 14.18 10.85L14.18 10.85Z" fill-rule="nonzero" />
        <path id="Вектор 376" d="M8.36997 12.8399C8.31997 12.7699 8.40997 12.6199 8.55997 12.4399C8.40997 12.6199 8.31997 12.7799 8.36997 12.8399Z" fill-rule="nonzero" />
        <path id="Вектор 377" d="M14.74 10.0601C14.82 9.92007 15.11 9.74007 15.35 9.57007C15.11 9.74007 14.82 9.92007 14.74 10.0601Z" fill-rule="nonzero" />
        <path id="Вектор 378" d="M7.03998 15.41L8.94998 14.27C9.20998 14.15 9.47998 14.05 9.74998 13.96C9.47998 14.05 9.21998 14.15 8.94998 14.27L7.03998 15.41Z" fill-rule="nonzero" />
        <path id="Вектор 379" d="M16.06 8.48999C16.36 8.60999 16.67 8.76999 16.81 8.76999C16.87 8.76999 16.98 8.72999 17.12 8.68999C16.98 8.73999 16.87 8.76999 16.81 8.76999C16.67 8.76999 16.36 8.60999 16.06 8.48999Z" fill-rule="nonzero" />
        <path id="Вектор 380" d="M15.71 9.1401C15.64 8.7601 14.46 8.4601 14.12 8.5101C14.46 8.4601 15.64 8.7601 15.71 9.1401Z" fill-rule="nonzero" />
        <path id="Вектор 381" d="M11.08 14.2C10.84 14.25 10.6 14.32 10.4 14.39C9.80999 14.58 9.24999 14.88 8.73999 15.25C9.24999 14.88 9.80999 14.59 10.4 14.4C10.61 14.33 10.84 14.2699 11.08 14.21L11.08 14.2Z" fill-rule="nonzero" />
        <path id="Вектор 382" d="M13.58 17.1899C12.15 17.4199 10.77 18.0299 9.57001 18.8699C10.77 18.0199 12.15 17.4199 13.58 17.1899Z" fill-rule="nonzero" />
        <path id="Вектор 383" d="M14.56 17.09C14.56 17.09 14.56 17.02 14.52 16.95C14.56 17.02 14.58 17.08 14.56 17.09Z" fill-rule="nonzero" />
        <path id="Вектор 384" d="M5.89001 23.1C5.99001 22.41 6.18001 21.71 6.46001 21.04C6.18001 21.71 5.99002 22.41 5.89001 23.1Z" fill-rule="nonzero" />
        <path id="Вектор 385" d="M14.09 16.3199C14.09 16.3199 14.13 16.3599 14.16 16.4099C14.13 16.3599 14.1 16.3299 14.09 16.3199C13.49 15.7999 12.35 15.9699 11.64 16.1599C11.04 16.3199 10.48 16.5599 9.95001 16.8799C10.48 16.5599 11.05 16.3199 11.64 16.1599C12.35 15.9699 13.48 15.7999 14.09 16.3199L14.09 16.3199Z" fill-rule="nonzero" />
        <path id="Вектор 386" d="M6.32001 19.1101L5.89001 19.5601L6.32001 19.1101Z" fill-rule="nonzero" />
        <path id="Вектор 387" d="M14.52 19.1899C13.41 19.5299 12.31 20.0899 11.36 20.7299C12.31 20.0899 13.4 19.5299 14.52 19.1899L14.52 19.1899Z" fill-rule="nonzero" />
        <path id="Вектор 388" d="M9.80997 12.74C10.91 12.28 13.89 11.59 13.5 13.64C13.89 11.59 10.91 12.28 9.80997 12.74C8.96997 13.1 8.15997 13.71 7.58997 14.47C8.15997 13.71 8.96997 13.09 9.80997 12.74L9.80997 12.74Z" fill-rule="nonzero" />
        <path id="Вектор 389" d="M34.84 23.64C35.47 23.43 36.11 23.22 36.27 22.75C36.11 23.21 35.47 23.43 34.84 23.64Z" fill-rule="nonzero" />
        <path id="Вектор 390" d="M6.60002 27.1699C6.50002 24.3299 7.93002 21.4399 10.15 19.6399C7.93002 21.4399 6.50002 24.3299 6.60002 27.1699C6.71002 27.1899 6.75002 27.1799 6.77002 27.1499C6.75002 27.1799 6.71002 27.1899 6.60002 27.1699L6.60002 27.1699Z" fill-rule="nonzero" />
        <path id="Вектор 391" />
        <path id="Вектор 392" />
        <path id="Вектор 393" d="M23.77 37.77C23.77 37.77 23.76 37.8 23.75 37.82C23.68 38.07 23.67 38.31 23.7 38.53C23.68 38.27 23.7 38.01 23.77 37.77Z" fill-rule="nonzero" />
        <path id="Вектор 394" d="M31.11 38.53C31.04 38.53 30.97 38.54 30.9 38.54C30.81 38.54 30.72 38.54 30.63 38.52C30.66 38.54 30.69 38.55 30.71 38.56C30.79 38.59 30.94 38.56 31.11 38.53Z" fill-rule="nonzero" />
        <path id="Вектор 395" d="M33.84 33.0401C33.8 33.2101 33.65 33.8201 33.57 33.9201C33.55 33.9501 33.52 33.9701 33.49 34.0001C33.54 33.9601 33.59 33.9301 33.62 33.8901C33.7 33.7901 33.86 33.1901 33.89 33.0101C34.42 30.4701 32.95 27.4901 30.64 26.8301C32.93 27.5201 34.38 30.4901 33.85 33.0401L33.84 33.0401Z" fill-rule="nonzero" />
        <path id="Вектор 396" d="M25.49 26.12C25.73 26.58 26.28 27.03 26.56 27.49C26.66 27.56 26.75 27.59 26.84 27.61C26.76 27.59 26.68 27.56 26.6 27.5C26.32 27.05 25.77 26.6 25.53 26.14C25.22 25.55 25.2 24.75 24.68 24.45C25.16 24.77 25.19 25.54 25.49 26.12Z" fill-rule="nonzero" />
        <path id="Вектор 397" d="M22.16 28.9901C21.98 28.9901 21.66 28.8501 21.4 28.8401C21.37 28.8401 21.34 28.8401 21.31 28.8401C21.33 28.8401 21.34 28.8401 21.36 28.8401C21.64 28.8401 21.99 29.0001 22.16 28.9901L22.16 28.9901Z" fill-rule="nonzero" />
        <path id="Вектор 398" d="M20.4 34.7199C20.59 35.2799 20.91 35.6699 21.13 36.1899C21.15 36.1899 21.17 36.1899 21.19 36.1899C20.97 35.6499 20.64 35.2599 20.44 34.6799C19.96 33.2399 20.09 31.6499 21.13 30.4999C21.13 30.4799 21.14 30.4599 21.15 30.4399C20.05 31.5999 19.91 33.2299 20.4 34.7099L20.4 34.7199Z" fill-rule="nonzero" />
        <path id="Вектор 399" d="M35.9 21.9801C35.54 21.7901 35.01 21.7301 34.6 21.7701C35.01 21.7301 35.54 21.7901 35.9 21.9801Z" fill-rule="nonzero" />
        <path id="Вектор 400" d="M38.18 33.3399C38.1 32.9599 38.06 32.5899 38 32.3899C38.05 32.6299 38.1 32.9899 38.18 33.3399Z" fill-rule="nonzero" />
        <path id="Вектор 401" d="M35.58 38.1299C35.1 38.4499 34.85 38.9399 34.81 39.4399C34.85 38.9299 35.1 38.4399 35.58 38.1299Z" fill-rule="nonzero" />
        <path id="Вектор 402" />
        <path id="Вектор 403" d="M37.43 41.25C36.53 41.58 35.83 41.39 35.37 40.97C35.82 41.4 36.52 41.59 37.42 41.25C37.73 41.13 37.98 40.96 38.16 40.76C37.98 40.97 37.73 41.14 37.42 41.25L37.43 41.25Z" fill-rule="nonzero" />
        <path id="Вектор 404" d="M40.27 27.1301C39.79 27.2601 39.32 27.4501 38.8 27.6701C38.8 27.6701 38.8 27.6701 38.81 27.6701C39.33 27.4601 39.79 27.2601 40.26 27.1201L40.27 27.1301Z" fill-rule="nonzero" />
        <path id="Вектор 405" d="M35.2 21.1499L34.19 21.8699L35.2 21.1499C36.02 20.1899 35.59 19.4399 34.97 18.6599C35.59 19.4399 36.02 20.1899 35.2 21.1499Z" fill-rule="nonzero" />
        <path id="Вектор 406" d="M31.98 22.9399C31.98 22.9399 31.97 22.9299 31.96 22.9199C31.96 22.9199 31.97 22.9299 31.98 22.9399Z" fill-rule="nonzero" />
        <path id="Вектор 407" d="M23.76 25.5C23.59 25.4 23.11 25.35 22.83 25.22C23.08 25.36 23.55 25.41 23.76 25.5Z" fill-rule="nonzero" />
        <path id="Вектор 408" d="M31.48 22.0599C31.41 21.9899 31.32 21.9499 31.21 21.9599C31.33 21.9399 31.41 21.9799 31.48 22.0599Z" fill-rule="nonzero" />
        <path id="Вектор 409" d="M24.2 35.7899C24.2 35.7899 24.23 35.7599 24.25 35.7499C23.33 33.9999 22.69 31.7799 23.84 29.9799C23.84 29.9599 23.84 29.9399 23.84 29.9199C22.62 31.7399 23.27 33.9999 24.2 35.7899Z" fill-rule="nonzero" />
        <path id="Вектор 410" d="M32.07 35C31.96 35.14 31.92 35.38 31.8 35.51C31.95 35.39 32 35.11 32.11 34.96C32.18 34.87 32.27 34.78 32.36 34.71C32.25 34.8 32.15 34.89 32.07 35Z" fill-rule="nonzero" />
        <path id="Вектор 411" d="M30.26 35.5499L30.28 35.5499C31.57 33.4699 30.72 30.7999 29.35 28.9699C29.33 28.9599 29.3 28.9499 29.28 28.9299C30.66 30.7499 31.52 33.4399 30.26 35.5399L30.26 35.5499Z" fill-rule="nonzero" />
        <path id="Вектор 412" d="M27.6 34.77C27.62 35.15 27.74 35.52 27.7 35.91C27.71 35.91 27.73 35.91 27.74 35.92C27.8 35.51 27.67 35.13 27.65 34.73C27.65 34.65 27.61 34.38 27.67 34.28C27.55 34.32 27.6 34.67 27.6 34.77L27.6 34.77Z" fill-rule="nonzero" />
        <path id="Вектор 413" d="M45.26 27.82C44.82 26.92 43.3 25.76 42.28 25.76L40.38 25.76C40.31 25.26 40.72 24.78 41.1 24.49C41.5 24.17 42.32 24.05 42.02 23.38C41.64 22.55 40.27 23.49 39.81 23.92C39.49 24.23 38.34 25.73 38.22 25.75C38.19 25.75 38.07 25.68 38.01 25.67C37.94 25.15 37.94 24.66 37.68 24.19C37.58 24 37.16 23.61 37.13 23.5C37.08 23.33 37.29 23.04 37.3 22.81C37.33 22.03 36.77 21.72 36.34 21.2C36.62 20.28 36.7 19.65 36.19 18.79C36.06 18.58 35.59 18.14 35.55 18.01C35.48 17.77 35.55 17.44 35.51 17.16C35.38 16.4 34.33 15.08 33.47 15.34C32.74 15.56 33.81 16.42 33.9 16.82C34.14 17.87 33.37 17.73 32.79 18.19C32.14 18.7 32.29 19.22 31.95 19.65C31.9 19.71 30.93 20.48 30.86 20.5C30.66 20.55 29.38 19.73 29.02 19.59C25.27 18.15 21.32 20.38 17.6 18.28C15.43 17.05 13.97 14.55 15.01 12.08C15.93 9.90004 18.55 8.92004 20.59 10.24C20.94 10.47 21.92 11.83 22.3 11.05C22.72 10.19 21.87 8.69004 21.26 8.07004C18.34 5.13004 13.3 6.40004 10.39 8.69004C3.87001 13.8 2.16001 23.84 5.79001 31.12C8.76001 37.08 14.8 40.15 21.19 41.05L19.6 39.95C13.98 35.48 13.53 26.03 19.57 21.7C21.69 20.18 24.63 19.41 27.2 20.14C27.3 20.17 28.22 20.52 27.78 20.62C27.38 20.72 26.09 20.62 25.57 20.62C22.76 20.62 18.91 23.51 17.62 25.94C13.65 33.43 20.09 40.66 27.31 42.23C28.29 42.44 29.83 42.34 30.54 42.63C31.5 43.02 31.7 43.31 32.9 43.17C33.47 43.1 33.94 42.72 34.42 42.66C35.66 42.49 36.54 42.93 37.82 42.43C38.58 42.13 40.65 40.28 41.08 39.59C41.59 38.77 41.69 37.85 41.76 36.91C44.75 35.23 46.9 31.14 45.27 27.83L45.26 27.82ZM9.61001 10.63C12.17 7.71004 17.58 5.83004 20.66 8.95004C19.75 8.64004 18.96 8.33004 17.97 8.43004C17.74 8.45004 17.39 8.59004 17.12 8.68004C16.98 8.73004 16.87 8.76004 16.81 8.76004C16.67 8.76004 16.36 8.60004 16.06 8.48004C15.91 8.42004 15.76 8.36004 15.64 8.35004C15.32 8.30004 14.93 8.31004 14.61 8.34004C14.51 8.34004 14.12 8.38004 14.11 8.50004C14.45 8.45004 15.63 8.75004 15.7 9.13004C15.7 9.14004 15.7 9.15004 15.7 9.16004C15.7 9.27004 15.54 9.41004 15.34 9.55004C15.1 9.72004 14.81 9.90004 14.73 10.04C13 9.46004 11.21 9.87004 9.60001 10.61L9.61001 10.63ZM9.39001 11.61C9.70001 11.35 10.14 11.07 10.63 10.83C11.85 10.24 13.4 9.91004 14.18 10.85L13.62 11.94C12.9 11.75 12.16 11.72 11.43 11.8C11.42 11.8 11.4 11.8 11.39 11.8C10.33 11.93 9.29001 12.3 8.38001 12.83C8.33001 12.76 8.42001 12.61 8.57001 12.43C8.84001 12.1 9.29001 11.69 9.40001 11.6L9.39001 11.61ZM9.81001 12.74C10.91 12.28 13.89 11.59 13.5 13.64C12.21 13.47 10.96 13.57 9.76001 13.96C9.49001 14.05 9.22001 14.15 8.96001 14.27L7.05001 15.41C7.19001 15.08 7.38001 14.77 7.60001 14.47C8.17001 13.71 8.98001 13.09 9.82001 12.74L9.81001 12.74ZM5.89001 19.56C5.89001 19.56 5.91001 19.47 5.92001 19.42C6.24001 18.06 7.03001 16.74 8.10001 15.76C8.30001 15.57 8.52001 15.4 8.74002 15.24C9.25002 14.87 9.81001 14.58 10.4 14.38C10.61 14.31 10.84 14.25 11.08 14.19C12.18 13.95 13.51 13.98 13.67 15.31C11.47 15.26 9.42002 16.19 7.74002 17.56L6.31001 19.1L5.89001 19.55L5.89001 19.56ZM5.89001 23.1C5.99001 22.41 6.18001 21.71 6.46001 21.04C7.16001 19.35 8.39001 17.81 9.94001 16.88C10.47 16.56 11.04 16.32 11.63 16.16C12.34 15.97 13.47 15.8 14.08 16.32C14.09 16.33 14.12 16.36 14.15 16.41C14.25 16.54 14.42 16.79 14.5 16.95C14.54 17.02 14.56 17.08 14.54 17.09C14.21 17.1 13.89 17.14 13.56 17.19C12.13 17.42 10.75 18.03 9.55001 18.87C8.53001 19.59 7.63001 20.49 6.95002 21.48C6.65001 21.92 6.42001 22.44 6.14001 22.88C6.07001 22.99 6.08002 23.14 5.87002 23.1L5.89001 23.1ZM6.60001 27.17C6.50001 24.33 7.93001 21.44 10.15 19.64C10.72 19.17 11.35 18.78 12.02 18.48C12.73 18.16 13.55 17.91 14.34 17.91C15.12 17.91 15.86 18.16 16.42 18.85C15.8 18.87 15.16 18.99 14.52 19.18C13.41 19.52 12.31 20.08 11.36 20.72C11.07 20.92 10.79 21.12 10.53 21.33C8.47001 22.98 7.74001 24.59 6.79001 26.97C6.76001 27.05 6.78001 27.11 6.76001 27.15C6.74001 27.18 6.70001 27.19 6.59001 27.17L6.60001 27.17ZM8.72001 31.28C8.72001 31.28 8.72001 31.34 8.70001 31.37C8.68001 31.45 8.64001 31.5 8.56001 31.44C8.56001 31.44 8.55001 31.43 8.54001 31.42C8.30001 30.54 8.20001 29.64 8.24001 28.76C8.32001 27.07 8.87001 25.43 9.79001 23.96C10.41 22.98 11.22 22.06 12.16 21.31C13.77 20.05 15.76 19.3 17.82 19.65C17.82 19.7 17.83 19.73 17.83 19.76C17.83 19.83 17.79 19.81 17.72 19.84C17.72 19.84 17.72 19.84 17.71 19.84C17.54 19.93 17.37 20.02 17.2 20.1C16.53 20.42 15.84 20.7 15.17 21.11C12.15 22.96 9.40001 26.2 8.82001 29.79C8.74001 30.28 8.76001 30.8 8.71001 31.27L8.72001 31.28ZM17.74 21.87C17.74 21.87 17.7 21.9 17.68 21.92C17.63 21.96 17.58 22 17.53 22.04C17.52 22.05 17.5 22.06 17.49 22.07C16.27 23.06 15.19 24.33 14.34 25.74C13.13 27.75 12.41 30.07 12.44 32.34L12.84 35.48C10.9 32.61 11.11 28.67 12.54 25.63C12.97 24.72 13.55 23.84 14.26 23.05C15.78 21.37 17.86 20.16 20.13 20.26C19.34 20.81 18.5 21.28 17.74 21.86L17.74 21.87ZM30.97 22.05C31.06 22 31.14 21.97 31.21 21.96C31.33 21.94 31.41 21.98 31.48 22.06C31.66 22.25 31.73 22.65 31.94 22.9C31.94 22.9 31.95 22.91 31.96 22.92C31.96 22.92 31.97 22.93 31.98 22.94C31.98 22.94 32 22.95 32 22.96C32 22.96 32.01 22.96 32.02 22.97C32.03 22.98 32.05 22.99 32.06 23C32.03 22.92 32 22.84 31.98 22.76C31.9 22.55 31.83 22.35 31.78 22.14C31.68 21.74 31.67 21.34 31.9 20.93C32.1 20.58 32.55 20.43 32.72 20.16C32.72 20.15 32.74 20.13 32.75 20.11C32.85 19.92 32.9 19.67 33 19.44C33.03 19.37 33.06 19.3 33.1 19.23C33.48 18.62 34.04 18.5 34.7 18.33C34.79 18.44 34.88 18.54 34.96 18.65C35.58 19.43 36.01 20.18 35.19 21.14L34.18 21.86C34.28 21.81 34.42 21.78 34.58 21.77C34.99 21.73 35.52 21.79 35.88 21.98C36.14 22.11 36.31 22.32 36.28 22.6C36.28 22.66 36.26 22.71 36.25 22.76C36.09 23.22 35.45 23.44 34.82 23.65C34.3 23.82 33.79 23.98 33.55 24.26C34.51 24.23 36.33 23.23 36.51 24.51C36.53 24.64 36.53 24.79 36.51 24.97C36.4 25.12 35.54 25.03 35.28 25.06C35.17 25.07 35.06 25.09 34.95 25.11C34.14 25.28 33.4 25.71 32.76 26.22C32.71 26.26 32.65 26.31 32.6 26.35L31.98 26.15L30.38 25.64C30.24 25.44 30.15 25.13 30.12 24.78C30.01 23.77 30.32 22.38 30.95 22.04L30.97 22.05ZM25.75 24.06C26.16 22.11 27.91 22.11 29.06 22.65C29.68 22.94 29 24.31 28.89 24.58C28.75 24.91 28.62 25.44 27.99 25.31C27.99 25.31 27.14 25.11 26.57 24.77C26.02 24.44 25.69 24.35 25.75 24.06ZM22.03 38.54C21.38 38.54 20.85 38.12 20.85 37.6C20.85 37.08 21.38 36.66 22.03 36.66C22.68 36.66 23.21 37.08 23.21 37.6C23.21 38.12 22.68 38.54 22.03 38.54ZM21.4 34.61C20.63 33.29 20.72 31.93 21.13 30.51C20.09 31.66 19.96 33.25 20.44 34.69C20.63 35.27 20.97 35.65 21.19 36.2C21.17 36.2 21.15 36.2 21.13 36.2C21.13 36.22 21.14 36.23 21.15 36.25C19.49 36.31 18.37 34.01 18.32 32.56C18.26 30.88 19.53 28.86 21.33 28.86C21.36 28.86 21.39 28.86 21.42 28.86C21.68 28.86 22 29 22.18 29.01C22.37 28.99 23.09 28.51 23.54 28.46C23.83 28.43 24.42 28.28 24.42 28.28C24.49 27.36 24.42 26.29 23.81 25.56C23.8 25.55 23.78 25.54 23.76 25.52C23.55 25.43 23.08 25.38 22.83 25.24C22.66 25.16 22.57 25.05 22.66 24.88C22.7 24.81 23.62 24.38 23.77 24.36C24.19 24.29 24.48 24.34 24.68 24.48C25.2 24.78 25.22 25.57 25.53 26.17C25.77 26.63 26.32 27.08 26.6 27.53C26.68 27.59 26.76 27.62 26.84 27.64C27.22 27.69 27.51 27.31 27.85 27.15C28.85 26.67 29.79 26.62 30.62 26.87C32.93 27.53 34.41 30.51 33.87 33.05C33.83 33.22 33.68 33.83 33.6 33.93C33.57 33.97 33.53 34 33.47 34.04C33.24 34.22 32.74 34.42 32.35 34.75C32.26 34.83 32.18 34.91 32.1 35C31.98 35.15 31.94 35.43 31.79 35.55C31.74 35.61 31.67 35.65 31.57 35.65C31.91 33.89 31.77 32.11 30.84 30.55C30.49 29.96 29.96 29.32 29.34 29.01C30.71 30.83 31.55 33.51 30.27 35.59L30.25 35.59C30.25 35.59 30.23 35.62 30.22 35.63L28.29 35.6L27.67 34.31L27.65 34.31C27.58 34.41 27.62 34.68 27.63 34.76C27.65 35.16 27.78 35.54 27.72 35.95C27.71 35.95 27.69 35.95 27.68 35.94C27.68 35.96 27.68 35.98 27.68 36C27.11 35.79 26.42 35.68 25.86 35.47C24.59 34.99 23.76 33.06 23.69 31.78C23.66 31.15 23.82 30.62 23.83 30.01C22.67 31.81 23.32 34.02 24.24 35.78C24.22 35.79 24.21 35.81 24.19 35.82C23.2 36.75 21.9 35.52 21.38 34.63L21.4 34.61ZM26.19 38.66C25.83 39.23 25.69 39.86 25.77 40.4C24.5 40.4 23.78 39.5 23.7 38.54C23.67 38.31 23.68 38.07 23.75 37.83C23.75 37.81 23.75 37.8 23.77 37.78C23.97 37.05 24.56 36.42 25.59 36.29C26.66 36.15 27.35 36.75 27.62 37.53C27.09 37.68 26.57 38.08 26.2 38.67L26.19 38.66ZM28.77 41.4C26.22 41.76 25.84 38.21 28.25 37.9C30.51 37.61 30.74 41.12 28.77 41.4ZM29.59 37.6C29.59 37.08 30.18 36.66 30.91 36.66C31.64 36.66 32.23 37.08 32.23 37.6C32.23 38.07 31.75 38.45 31.12 38.52C30.95 38.56 30.81 38.58 30.72 38.55C30.7 38.55 30.68 38.53 30.64 38.51C30.04 38.42 29.59 38.04 29.59 37.59L29.59 37.6ZM32.84 42.02C30.12 42.44 30.16 38.68 32.41 38.63C34.36 38.58 34.63 41.75 32.84 42.02ZM33.18 37.88C32.09 36.78 32.78 34.82 34.24 34.61C35.79 34.39 36.98 35.48 36.54 37.06C36.29 37.64 34.44 39.16 33.18 37.88ZM37.43 41.25C36.53 41.58 35.83 41.39 35.38 40.97C34.99 40.61 34.79 40.07 34.81 39.54C34.81 39.51 34.81 39.49 34.81 39.46C34.81 39.46 34.81 39.46 34.81 39.45C34.85 38.94 35.1 38.45 35.58 38.14C35.58 38.14 35.59 38.14 35.6 38.13C35.83 37.98 36.12 37.87 36.46 37.82C38.33 37.53 39.16 39.66 38.17 40.77C37.99 40.98 37.74 41.15 37.43 41.26L37.43 41.25ZM39.92 38.62C39.72 38.65 39.53 38.66 39.35 38.65C39.35 38.65 39.33 38.65 39.32 38.65C36.76 38.53 36.96 34.8 39.42 34.74C41.7 34.69 42.02 38.3 39.92 38.62ZM41.81 34.93C40.94 35.22 40.73 34.87 39.92 34.66C39.59 34.57 39.13 34.59 38.83 34.48C38.45 34.35 38.28 33.84 38.17 33.34C38.08 32.99 38.04 32.63 37.99 32.39C37.96 32.3 37.93 32.24 37.89 32.24C37.65 32.59 37.61 33.01 37.41 33.39C36.89 34.36 36.12 34.37 35.18 33.97C35.07 33.81 35.3 32.42 35.3 32.1C35.3 31.08 35.02 29.83 34.61 28.9C34.37 28.34 34.01 27.87 33.71 27.35C33.94 26.85 34.67 26.42 35.21 26.34C36.82 26.09 37.56 26.89 38.8 27.66C39.32 27.45 39.79 27.25 40.27 27.12C40.81 26.96 41.37 26.89 42.04 26.96C46.03 27.37 44.95 33.89 41.81 34.93L41.81 34.93Z" fill="rgb(36,63,32)" fill-rule="nonzero" />
        <path id="Вектор 414" d="M24.2 35.79C23.27 34 22.62 31.74 23.84 29.92C23.84 29.94 23.84 29.96 23.84 29.98C23.84 30.58 23.67 31.11 23.7 31.75C23.77 33.04 24.6 34.96 25.87 35.44C26.43 35.65 27.11 35.76 27.69 35.97C27.69 35.95 27.69 35.93 27.69 35.91C27.73 35.52 27.61 35.15 27.59 34.77C27.59 34.67 27.53 34.32 27.66 34.28C27.66 34.28 27.67 34.28 27.68 34.28L28.3 35.57L30.23 35.6C30.23 35.6 30.25 35.57 30.26 35.56C31.52 33.46 30.66 30.77 29.28 28.95C29.3 28.96 29.33 28.97 29.35 28.99C29.97 29.3 30.5 29.94 30.85 30.53C31.77 32.09 31.92 33.87 31.58 35.63C31.68 35.63 31.75 35.59 31.8 35.53C31.92 35.39 31.96 35.15 32.07 35.02C32.15 34.91 32.25 34.81 32.36 34.73C32.76 34.41 33.25 34.21 33.48 34.02C33.51 33.99 33.54 33.97 33.56 33.94C33.64 33.84 33.8 33.23 33.83 33.06C34.36 30.52 32.91 27.54 30.62 26.85C29.79 26.6 28.85 26.65 27.85 27.13C27.51 27.3 27.22 27.67 26.84 27.62C26.75 27.61 26.66 27.57 26.56 27.5C26.28 27.05 25.73 26.6 25.49 26.13C25.19 25.55 25.16 24.78 24.68 24.46C24.48 24.32 24.19 24.27 23.77 24.34C23.62 24.37 22.69 24.8 22.66 24.86C22.56 25.03 22.66 25.14 22.83 25.22C23.11 25.35 23.59 25.41 23.76 25.5C23.78 25.51 23.8 25.52 23.81 25.54C24.42 26.28 24.49 27.35 24.42 28.26C24.42 28.26 23.83 28.41 23.54 28.44C23.09 28.49 22.37 28.97 22.18 28.99C22.01 29 21.66 28.85 21.38 28.84C21.36 28.84 21.35 28.84 21.33 28.84C19.53 28.84 18.26 30.87 18.32 32.54C18.37 33.99 19.49 36.29 21.15 36.23C21.15 36.21 21.14 36.2 21.13 36.18C20.91 35.66 20.59 35.27 20.4 34.71C19.91 33.24 20.05 31.6 21.15 30.44C21.15 30.46 21.14 30.48 21.13 30.5C20.72 31.92 20.62 33.28 21.4 34.6C21.92 35.49 23.21 36.71 24.21 35.79L24.2 35.79Z" fill="rgb(224,168,43)" fill-rule="nonzero" />
        <path id="Вектор 415" d="M42.03 26.9699C41.37 26.8999 40.81 26.9699 40.26 27.1299C39.78 27.2699 39.32 27.4599 38.81 27.6799C38.81 27.6799 38.81 27.6799 38.8 27.6799C37.57 26.9099 36.82 26.1099 35.21 26.3599C34.68 26.4399 33.95 26.8699 33.71 27.3699C34.01 27.8899 34.37 28.3599 34.61 28.9199C35.02 29.8499 35.29 31.1099 35.3 32.1199C35.3 32.4399 35.07 33.8399 35.18 33.9899C36.12 34.3799 36.89 34.3799 37.41 33.4099C37.61 33.0299 37.65 32.5999 37.89 32.2599C37.93 32.2599 37.96 32.3199 37.99 32.4099C38.05 32.6099 38.09 32.9799 38.17 33.3599C38.28 33.8599 38.45 34.3699 38.83 34.4999C39.13 34.6099 39.59 34.5899 39.92 34.6799C40.73 34.8999 40.93 35.2399 41.81 34.9499C44.95 33.9099 46.03 27.3899 42.04 26.9799L42.03 26.9699Z" fill="rgb(68,115,75)" fill-rule="nonzero" />
        <path id="Вектор 416" d="M30.41 25.6501L32.01 26.1601L32.63 26.3601C32.68 26.3201 32.74 26.2701 32.79 26.2301C33.43 25.7201 34.17 25.2801 34.98 25.1201C35.09 25.1001 35.2 25.0801 35.31 25.0701C35.58 25.0401 36.44 25.1301 36.54 24.9801C36.56 24.8001 36.56 24.6501 36.54 24.5201C36.35 23.2401 34.54 24.2401 33.58 24.2701C33.82 23.9901 34.33 23.8301 34.85 23.6601C35.48 23.4501 36.12 23.2401 36.28 22.7701C36.3 22.7201 36.31 22.6701 36.31 22.6101C36.34 22.3301 36.17 22.1301 35.91 21.9901C35.55 21.8001 35.02 21.7401 34.61 21.7801C34.45 21.8001 34.31 21.8301 34.21 21.8701L35.22 21.1501C36.04 20.1901 35.61 19.4401 34.99 18.6601C34.91 18.5501 34.82 18.4501 34.73 18.3401C34.08 18.5101 33.51 18.6301 33.13 19.2401C33.09 19.3101 33.06 19.3801 33.03 19.4501C32.94 19.6801 32.89 19.9301 32.78 20.1201C32.78 20.1401 32.76 20.1501 32.75 20.1701C32.57 20.4401 32.13 20.5901 31.93 20.9401C31.69 21.3501 31.71 21.7501 31.81 22.1501C31.86 22.3601 31.94 22.5601 32.01 22.7701C32.04 22.8501 32.07 22.9301 32.09 23.0101C32.08 23.0001 32.06 22.9901 32.05 22.9801C32.05 22.9801 32.04 22.9801 32.03 22.9701C32.03 22.9701 32.01 22.9601 32.01 22.9501C32.01 22.9501 32 22.9401 31.99 22.9301C31.99 22.9301 31.98 22.9201 31.97 22.9101C31.76 22.6601 31.69 22.2601 31.51 22.0701C31.44 22.0001 31.35 21.9601 31.24 21.9701C31.17 21.9701 31.09 22.0101 31 22.0601C30.38 22.4001 30.07 23.7801 30.17 24.8001C30.21 25.1501 30.29 25.4601 30.43 25.6601L30.41 25.6501Z" fill="rgb(224,168,43)" fill-rule="nonzero" />
        <path id="Вектор 417" d="M14.26 23.06C13.55 23.84 12.97 24.73 12.54 25.64C11.11 28.68 10.9 32.62 12.84 35.49L12.44 32.35C12.41 30.08 13.14 27.76 14.34 25.75C15.19 24.34 16.27 23.07 17.49 22.08C17.5 22.07 17.52 22.06 17.53 22.05C17.58 22.01 17.63 21.97 17.68 21.93C17.7 21.91 17.72 21.9 17.74 21.88C18.5 21.3 19.34 20.82 20.13 20.28C17.86 20.18 15.78 21.38 14.26 23.07L14.26 23.06Z" fill="rgb(224,168,43)" fill-rule="nonzero" />
        <path id="Вектор 418" d="M15.18 21.12C15.85 20.71 16.54 20.44 17.21 20.11C17.38 20.03 17.55 19.94 17.72 19.85C17.72 19.85 17.72 19.85 17.73 19.85C17.8 19.82 17.84 19.83 17.84 19.77C17.84 19.75 17.84 19.71 17.83 19.66C15.77 19.31 13.78 20.06 12.17 21.32C11.23 22.06 10.41 22.98 9.79997 23.97C8.87997 25.43 8.31997 27.08 8.24997 28.77C8.20997 29.65 8.29997 30.55 8.54997 31.43C8.54997 31.43 8.55997 31.45 8.56997 31.45C8.64997 31.52 8.68997 31.46 8.70997 31.38C8.70997 31.35 8.71997 31.32 8.72997 31.29C8.78997 30.82 8.75997 30.3 8.83997 29.81C9.41997 26.22 12.17 22.97 15.19 21.13L15.18 21.12Z" fill="rgb(224,168,43)" fill-rule="nonzero" />
        <path id="Вектор 419" d="M10.54 21.3399C10.8 21.1299 11.08 20.9299 11.37 20.7299C12.32 20.0899 13.41 19.5299 14.53 19.1899C15.16 18.9999 15.8 18.8799 16.43 18.8599C15.88 18.1699 15.14 17.9199 14.35 17.9199C13.57 17.9199 12.75 18.1699 12.03 18.4899C11.36 18.7899 10.73 19.1799 10.16 19.6499C7.94003 21.4499 6.51003 24.3399 6.61003 27.1799C6.72003 27.1999 6.76003 27.1899 6.78003 27.1599C6.80003 27.1199 6.78003 27.0599 6.81003 26.9799C7.76003 24.5999 8.49003 22.9899 10.55 21.3399L10.54 21.3399Z" fill="rgb(224,168,43)" fill-rule="nonzero" />
        <path id="Вектор 420" d="M9.56997 18.8699C10.77 18.0199 12.15 17.4199 13.58 17.1899C13.9 17.1399 14.23 17.0999 14.56 17.0899C14.58 17.0799 14.56 17.0199 14.52 16.9499C14.44 16.7899 14.27 16.5399 14.17 16.4099C14.14 16.3699 14.11 16.3299 14.1 16.3199C13.5 15.7999 12.36 15.9699 11.65 16.1599C11.05 16.3199 10.49 16.5599 9.95997 16.8799C8.40997 17.8099 7.17997 19.3499 6.47997 21.0399C6.19997 21.7099 6.00997 22.4099 5.90997 23.0999C6.10997 23.1499 6.09997 22.9999 6.17997 22.8799C6.45997 22.4399 6.68997 21.9199 6.98997 21.4799C7.66997 20.4899 8.56997 19.5899 9.58997 18.8699L9.56997 18.8699Z" fill="rgb(224,168,43)" fill-rule="nonzero" />
        <path id="Вектор 421" d="M14.74 10.06C14.82 9.91996 15.11 9.73996 15.35 9.56996C15.55 9.42996 15.71 9.28996 15.71 9.17996C15.71 9.16996 15.71 9.15996 15.71 9.14996C15.64 8.76996 14.46 8.46996 14.12 8.51996C14.13 8.39996 14.52 8.35996 14.62 8.35996C14.94 8.32996 15.33 8.32996 15.65 8.36996C15.77 8.38997 15.92 8.43996 16.07 8.49996C16.37 8.61996 16.68 8.77996 16.82 8.77996C16.88 8.77996 16.99 8.73996 17.13 8.69996C17.39 8.60996 17.74 8.46996 17.98 8.44996C18.97 8.34996 19.76 8.65996 20.67 8.96996C17.59 5.84996 12.17 7.72996 9.62 10.65C11.23 9.89997 13.02 9.49997 14.75 10.08L14.74 10.06Z" fill="rgb(224,168,43)" fill-rule="nonzero" />
        <path id="Вектор 422" d="M36.47 37.8C36.13 37.85 35.84 37.96 35.61 38.11C35.61 38.11 35.6 38.11 35.59 38.12C35.11 38.44 34.86 38.93 34.82 39.43C34.82 39.43 34.82 39.43 34.82 39.44C34.82 39.47 34.82 39.49 34.82 39.52C34.8 40.05 35 40.59 35.39 40.95C35.84 41.38 36.54 41.57 37.45 41.23C37.76 41.11 38.01 40.94 38.19 40.74C39.18 39.63 38.35 37.5 36.48 37.79L36.47 37.8Z" fill="rgb(224,168,43)" fill-rule="nonzero" />
        <path id="Вектор 423" d="M7.75003 17.5701C9.43003 16.2001 11.47 15.2701 13.68 15.3201C13.52 13.9901 12.19 13.9701 11.09 14.2001C10.85 14.2501 10.61 14.3201 10.41 14.3901C9.82002 14.5801 9.26003 14.8801 8.75002 15.2401C8.53003 15.4001 8.31003 15.5801 8.11003 15.7601C7.04002 16.7401 6.26003 18.0501 5.93002 19.4201C5.92002 19.4701 5.91002 19.5101 5.90002 19.5601L6.32002 19.1101L7.75002 17.5701L7.75003 17.5701Z" fill="rgb(224,168,43)" fill-rule="nonzero" />
        <path id="Вектор 424" d="M36.55 37.06C36.99 35.48 35.8 34.39 34.25 34.61C32.79 34.82 32.1 36.78 33.19 37.88C34.46 39.16 36.3 37.64 36.55 37.06Z" fill="rgb(224,168,43)" fill-rule="nonzero" />
        <path id="Вектор 425" d="M28.25 37.9C25.83 38.2 26.22 41.76 28.77 41.4C30.75 41.12 30.51 37.62 28.25 37.9Z" fill="rgb(68,115,75)" fill-rule="nonzero" />
        <path id="Вектор 426" d="M32.42 38.63C30.16 38.68 30.13 42.44 32.85 42.02C34.64 41.75 34.37 38.58 32.42 38.63Z" fill="rgb(68,115,75)" fill-rule="nonzero" />
        <path id="Вектор 427" d="M39.42 34.74C36.96 34.8 36.76 38.54 39.32 38.65C39.32 38.65 39.34 38.65 39.35 38.65C39.53 38.65 39.72 38.65 39.92 38.62C42.02 38.31 41.7 34.69 39.42 34.74Z" fill="rgb(224,168,43)" fill-rule="nonzero" />
        <path id="Вектор 428" d="M7.04003 15.41L8.95003 14.27C9.21003 14.15 9.48003 14.05 9.75003 13.96C10.96 13.56 12.2 13.47 13.49 13.64C13.88 11.59 10.9 12.28 9.80003 12.74C8.96003 13.1 8.15003 13.71 7.58003 14.47C7.36003 14.76 7.17003 15.08 7.03003 15.41L7.04003 15.41Z" fill="rgb(224,168,43)" fill-rule="nonzero" />
        <path id="Вектор 429" d="M8.37002 12.84C9.28002 12.31 10.32 11.94 11.38 11.81C11.39 11.81 11.41 11.81 11.42 11.81C12.15 11.73 12.9 11.76 13.61 11.95L14.17 10.86C13.38 9.92002 11.84 10.25 10.62 10.84C10.13 11.08 9.69002 11.36 9.38002 11.62C9.27002 11.71 8.82002 12.13 8.55002 12.45C8.40002 12.63 8.31002 12.79 8.36002 12.85L8.37002 12.84Z" fill="rgb(224,168,43)" fill-rule="nonzero" />
        <path id="Вектор 430" d="M26.57 24.7699C27.14 25.1199 27.99 25.3099 27.99 25.3099C28.62 25.4299 28.75 24.9099 28.89 24.5799C29 24.3099 29.67 22.9399 29.06 22.6499C27.91 22.1099 26.16 22.0999 25.75 24.0599C25.69 24.3499 26.02 24.4399 26.57 24.7699Z" fill="rgb(68,115,75)" fill-rule="nonzero" />
        <path id="Вектор 431" d="M31.11 38.5299C31.74 38.4599 32.22 38.0699 32.22 37.6099C32.22 37.0899 31.63 36.6699 30.9 36.6699C30.17 36.6699 29.58 37.0899 29.58 37.6099C29.58 38.0599 30.03 38.4399 30.63 38.5299C30.72 38.5399 30.8 38.5499 30.9 38.5499C30.97 38.5499 31.04 38.5499 31.11 38.5399L31.11 38.5299Z" fill="rgb(68,115,75)" fill-rule="nonzero" />
        <ellipse id="Эллипс 22" rx="1.180000" ry="0.939999" cx="22.0300064" cy="37.5999107" fill="rgb(68,115,75)" />
        <path id="Вектор 432" d="M25.58 36.2799C24.55 36.4099 23.96 37.0399 23.76 37.7699C23.69 38.0199 23.67 38.2799 23.69 38.5299C23.78 39.4899 24.49 40.3899 25.76 40.3899C25.68 39.8499 25.82 39.2199 26.18 38.6499C26.55 38.0699 27.07 37.6699 27.6 37.5099C27.32 36.7299 26.64 36.1299 25.57 36.2699L25.58 36.2799Z" fill="rgb(68,115,75)" fill-rule="nonzero" />
    </g>
</svg>