<svg viewBox="0 0 21.5601 22" xmlns="http://www.w3.org/2000/svg" xmlns:xlink="http://www.w3.org/1999/xlink" width="21.560059" height="22.000000" fill="none" customFrame="#000000">
    <g id="google">
        <path id="Вектор 433" d="M21.56 11.25C21.56 10.47 21.49 9.72 21.36 9L11 9L11 13.26L16.92 13.26C16.66 14.63 15.88 15.79 14.71 16.57L14.71 19.34L18.28 19.34C20.36 17.42 21.56 14.6 21.56 11.25L21.56 11.25Z" fill="rgb(66,133,244)" fill-rule="nonzero" />
        <path id="Вектор 434" d="M11.0002 22C13.9702 22 16.4602 21.02 18.2802 19.34L14.7102 16.57C13.7302 17.23 12.4802 17.63 11.0002 17.63C8.14018 17.63 5.71018 15.7 4.84018 13.1L1.18018 13.1L1.18018 15.94C2.99018 19.53 6.70018 22 11.0002 22Z" fill="rgb(52,168,83)" fill-rule="nonzero" />
        <path id="Вектор 435" d="M4.84 13.09C4.62 12.43 4.49 11.73 4.49 11C4.49 10.27 4.62 9.57001 4.84 8.91001L4.84 6.07001L1.18 6.07001C0.43 7.55001 0 9.22001 0 11C0 12.78 0.43 14.45 1.18 15.93L4.03 13.71L4.84 13.09L4.84 13.09Z" fill="rgb(251,188,5)" fill-rule="nonzero" />
        <path id="Вектор 436" d="M11.0002 4.38C12.6202 4.38 14.0602 4.94 15.2102 6.02L18.3602 2.87C16.4502 1.09 13.9702 0 11.0002 0C6.70018 0 2.99018 2.47 1.18018 6.07L4.84018 8.91C5.71018 6.31 8.14018 4.38 11.0002 4.38L11.0002 4.38Z" fill="rgb(234,67,53)" fill-rule="nonzero" />
    </g>
</svg>