<svg viewBox="0 0 11.9927 22.0005" xmlns="http://www.w3.org/2000/svg" xmlns:xlink="http://www.w3.org/1999/xlink" width="11.992676" height="22.000488" fill="none" customFrame="#000000">
    <path id="Вектор 4" d="M11.6996 11.7078L1.70661 21.7078C1.55728 21.8571 1.36457 21.9553 1.15607 21.9883C0.947567 22.0213 0.733982 21.9874 0.545907 21.8915C0.357833 21.7955 0.204919 21.6425 0.10907 21.4543C0.013222 21.2661 -0.0206439 21.0524 0.0123252 20.8437C0.0452943 20.6351 0.143406 20.4422 0.292607 20.2928L9.57981 11.0003L0.292606 1.70781C0.143387 1.55838 0.0452581 1.36553 0.0122785 1.15687C-0.0207021 0.948218 0.0131591 0.73447 0.109009 0.546252C0.20486 0.358034 0.357782 0.205005 0.545867 0.109086C0.733953 0.0131679 0.94755 -0.0207167 1.15606 0.0122871C1.36457 0.0452904 1.55729 0.143488 1.70661 0.292813L11.6996 10.2928C11.8238 10.4169 11.9131 10.5716 11.9585 10.7413C12.004 10.911 12.004 11.0896 11.9585 11.2593C11.9131 11.429 11.8238 11.5837 11.6996 11.7078Z" fill="rgb(0,0,0)" fill-rule="nonzero" />
</svg>