<svg viewBox="0 0 22 22" xmlns="http://www.w3.org/2000/svg" xmlns:xlink="http://www.w3.org/1999/xlink" width="22.000000" height="22.000000" fill="none" customFrame="#000000">
    <g id="иконка вк">
        <path id="Вектор 447" d="M0 10.56C0 5.58195 0 3.09295 1.54648 1.54648C3.09295 0 5.58195 0 10.56 0L11.44 0C16.4181 0 18.907 0 20.4535 1.54648C22 3.09295 22 5.58195 22 10.56L22 11.44C22 16.4181 22 18.907 20.4535 20.4535C18.907 22 16.4181 22 11.44 22L10.56 22C5.58195 22 3.09295 22 1.54648 20.4535C0 18.907 0 16.4181 0 11.44L0 10.56Z" fill="rgb(0,119,255)" fill-rule="nonzero" />
        <path id="Вектор 448" d="M11.7059 15.8492C6.69177 15.8492 3.83181 12.4117 3.71265 6.69171L6.22431 6.69171C6.30681 10.89 8.15843 12.6684 9.6251 13.035L9.6251 6.69171L11.9902 6.69171L11.9902 10.3125C13.4385 10.1567 14.96 8.50671 15.4733 6.69171L17.8384 6.69171C17.4442 8.92838 15.7942 10.5784 14.6209 11.2567C15.7942 11.8067 17.6735 13.2459 18.3885 15.8492L15.7851 15.8492C15.2259 14.1075 13.8327 12.76 11.9902 12.5767L11.9902 15.8492L11.7059 15.8492Z" fill="rgb(255,255,255)" fill-rule="nonzero" />
    </g>
</svg>